/* XPM */
static char *result[] = {
/* columns rows colors chars-per-pixel */
"16 16 7 1 ",
"  c black",
". c #342423",
"X c #4D3533",
"o c #704844",
"O c #898989",
"+ c #A4A4A4",
"@ c None",
/* pixels */
"@@            @@",
"@ OOOOOOOOOOOO @",
" OO..XXXXXX..OO ",
" OO.XXXXXXXX.OO ",
" OOXXXXXXXXXXOO ",
" ++          OO ",
" ++          ++ ",
" OO          ++ ",
" OO          OO ",
" OOOOO++++OOOOO ",
" OOXXooooooXXOO ",
" OOXooooooooXOO ",
" OOXooooooooXOO ",
" OOXooooooooXOO ",
" OOXXooooooXXOO ",
"@              @"
};
