/* XPM */
static char *result[] = {
/* columns rows colors chars-per-pixel */
"16 16 8 1 ",
"  c black",
". c #4D3533",
"X c #63413D",
"o c #704844",
"O c #898989",
"+ c #A4A4A4",
"@ c white",
"# c None",
/* pixels */
"####        ####",
"##  oooooooo  ##",
"# +Xoooooooo@@ #",
" ++Xooooooo@@@@ ",
" ++Xoooooo@@@@@ ",
" OOXooooo@@@@@+ ",
" OOXoooo@@@@@++ ",
" OOXXoo@@@@@X++ ",
" ++XXX@@@@@XX++ ",
" OOOO@@@@@OOOOO ",
" OO.@@@@@+o..OO ",
" OO@@@@@+ooo.OO ",
" O@@@@@ooooo.OO ",
" @@@@@oooooo.OO ",
" @@@@oooooo..OO ",
"#              #"
};
