/* XPM */
static char *result[] = {
/* columns rows colors chars-per-pixel */
"16 16 127 2 ",
"   c #3E2725",
".  c #3F2725",
"X  c #373738",
"o  c #38383A",
"O  c #422826",
"+  c #512E2B",
"@  c #582F2B",
"#  c #50302D",
"$  c #5B302A",
"%  c #5B302B",
"&  c #5B312C",
"*  c #5D312C",
"=  c #5C312D",
"-  c #5D312D",
";  c #5C3531",
":  c #5E3631",
">  c #553738",
",  c #5C3938",
"<  c #60332E",
"1  c #633530",
"2  c #633632",
"3  c #643631",
"4  c #673731",
"5  c #663732",
"6  c #673732",
"7  c #683731",
"8  c #683732",
"9  c #603B37",
"0  c #693833",
"q  c #6A3833",
"w  c #633B3A",
"e  c #603C39",
"r  c #6B3E39",
"t  c #723E38",
"y  c #733F39",
"u  c #6C403F",
"i  c #7C433D",
"p  c #7D443E",
"a  c #494242",
"s  c #4C4646",
"d  c #4F4848",
"f  c #534241",
"g  c #5B4341",
"h  c #674443",
"j  c #6D4241",
"k  c #6F4442",
"l  c #774540",
"z  c #704747",
"x  c #704A49",
"c  c #734D4D",
"v  c #7F4C4A",
"b  c #685756",
"n  c #635F5F",
"m  c #7B5959",
"M  c #7E625F",
"N  c #5D5260",
"B  c #5D5361",
"V  c #5F5463",
"C  c #5F5563",
"Z  c #635360",
"A  c #56637B",
"S  c #616263",
"D  c #656061",
"F  c #666061",
"G  c #676262",
"H  c #6D6E6E",
"J  c #7F6360",
"K  c #746F6F",
"L  c #747475",
"P  c #7E7777",
"I  c #7B7C7C",
"U  c #7B7D7D",
"Y  c #855857",
"T  c #836969",
"R  c #8A7272",
"E  c #5D6780",
"W  c #5B6A86",
"Q  c #5C6A86",
"!  c #5F6D88",
"~  c #656B82",
"^  c #646B83",
"/  c #656C84",
"(  c #666C84",
")  c #666D85",
"_  c #657189",
"`  c #65738E",
"'  c #6A768E",
"]  c #6C7692",
"[  c #6E7793",
"{  c #6F7794",
"}  c #6F7B92",
"|  c #6F7894",
" . c #6F7995",
".. c #717995",
"X. c #717A96",
"o. c #717D99",
"O. c #707F9D",
"+. c #738097",
"@. c #7C8298",
"#. c #7D839A",
"$. c #6F80A0",
"%. c #6F80A1",
"&. c #7686A5",
"*. c #7786A5",
"=. c #7787A7",
"-. c #7F8AA1",
";. c #7F8CA5",
":. c #7F8DA7",
">. c #8D8587",
",. c #8E8688",
"<. c #8B8B8B",
"1. c #8F9090",
"2. c gray62",
"3. c #808DA7",
"4. c #808DA8",
"5. c #828FA9",
"6. c #8794AC",
"7. c #8895AF",
"8. c #8996B0",
"9. c #929EB6",
"0. c #929FB7",
"q. c gray64",
"w. c #A3A4A4",
"e. c gray66",
"r. c #A8A9A9",
"t. c gray70",
"y. c None",
/* pixels */
"y.y.y.y.y.y.y.y.y.y.y.y.y.y.y.y.",
"y.y.y.y.y.y.y.y.y.y.y.y.y.y.y.y.",
"y.y.y.y.y.y.5.7.7.5.y.y.y.y.y.y.",
"y.y.y.5.7.;.+.9.9.+.;.7.5.y.y.y.",
"' 8.;.+.0.6.` &.&.` 6.0.+.;.8.' ",
"} 0.6.` =.O.E ] ] E O.=.` 6.0.} ",
"! *.o.N V Z > , , > Z C B o.*.! ",
"A ` / h : 4 1 - % * 7 $ w ^ ` A ",
"_ 3.-.,.J q # a n b 2 6 k #.4._ ",
"Q %. .c r = s S o 1.g 5 z { %.Q ",
"A ` ( u 6 O L q.<.t.P 9 T ~ ` A ",
"_ 4.#.k 8 . I 2.X w.K e R @.4._ ",
"Q %.| j 6   U e.H r.n ; m [ %.Q ",
"A ` ) x r + d F G D f < u ( ` A ",
"_ :.-.>.M 0 & = = @ 3 5 k #.4._ ",
"W $.X.Y l i y p p y p t v ..$.W "
};
