/* XPM */
static char *result[] = {
/* columns rows colors chars-per-pixel */
"16 16 118 2 ",
"   c #512C29",
".  c #49312F",
"X  c #5B302A",
"o  c #5F332F",
"O  c #4D3634",
"+  c #5C3430",
"@  c #5E3631",
"#  c #553738",
"$  c #5B3838",
"%  c #61332E",
"&  c #62342F",
"*  c #623531",
"=  c #633732",
"-  c #643631",
";  c #653631",
":  c #673631",
">  c #663731",
",  c #673731",
"<  c #653732",
"1  c #663732",
"2  c #673732",
"3  c #673933",
"4  c #6A3833",
"5  c #6A3934",
"6  c #6B3934",
"7  c #6B3A35",
"8  c #6C3A35",
"9  c #633B3A",
"0  c #6A3D38",
"q  c #6A3E39",
"w  c #6B3E39",
"e  c #733E38",
"r  c #63423E",
"t  c #6C403F",
"y  c #6E433F",
"u  c #7C433D",
"i  c #7C443D",
"p  c #5C4341",
"a  c #5B4A49",
"s  c #5C4E4E",
"d  c #5F5756",
"f  c #674443",
"g  c #6D4241",
"h  c #6F4540",
"j  c #6F4442",
"k  c #654B48",
"l  c #774540",
"z  c #704747",
"x  c #704A49",
"c  c #734D4D",
"v  c #7F4C4A",
"b  c #675756",
"n  c #7A5959",
"m  c #7E625F",
"M  c #5D5260",
"N  c #5D5361",
"B  c #5F5463",
"V  c #5F5563",
"C  c #635360",
"Z  c #56637B",
"A  c #676161",
"S  c #666869",
"D  c #736261",
"F  c #7F6360",
"G  c #737374",
"H  c #855857",
"J  c #836969",
"K  c #897272",
"L  c #5D6780",
"P  c #5B6A86",
"I  c #5C6A86",
"U  c #5F6D88",
"Y  c #656B82",
"T  c #646B83",
"R  c #656C84",
"E  c #666C84",
"W  c #666D85",
"Q  c #657189",
"!  c #65738E",
"~  c #6A768E",
"^  c #6C7692",
"/  c #6E7793",
"(  c #6F7794",
")  c #6F7B92",
"_  c #6F7894",
"`  c #6F7995",
"'  c #717995",
"]  c #717A96",
"[  c #717D99",
"{  c #707F9D",
"}  c #738097",
"|  c #7C8298",
" . c #7D839A",
".. c #6F80A0",
"X. c #6F80A1",
"o. c #7686A5",
"O. c #7786A5",
"+. c #7787A7",
"@. c #7F8AA1",
"#. c #7F8CA5",
"$. c #7F8DA7",
"%. c #858586",
"&. c #8D8587",
"*. c #8E8688",
"=. c #898A8A",
"-. c #8C8C8D",
";. c #969495",
":. c #959696",
">. c #9B9B9C",
",. c #808DA7",
"<. c #808DA8",
"1. c #828FA9",
"2. c #8794AC",
"3. c #8895AF",
"4. c #8996B0",
"5. c #929EB6",
"6. c #929FB7",
"7. c None",
/* pixels */
"7.7.7.7.7.7.7.7.7.7.7.7.7.7.7.7.",
"7.7.7.7.7.7.7.7.7.7.7.7.7.7.7.7.",
"7.7.7.7.7.7.1.3.3.1.7.7.7.7.7.7.",
"7.7.7.1.3.#.} 5.5.} #.3.1.7.7.7.",
"~ 4.#.} 6.2.! o.o.! 2.6.} #.4.~ ",
") 6.2.! +.{ L ^ ^ L { +.! 2.6.) ",
"U O.[ M B C # $ $ # C V N [ O.U ",
"Z ! R f @ : ; & % - , X 9 T ! Z ",
"Q ,.@.*.F 6   s b o 8 2 j  .<.Q ",
"I X.` c q 6 p S >.D 1 3 z ( X.I ",
"Z ! E t 1 ; a :.G ;.r y J Y ! Z ",
"Q <. .j 1 5 . -.%.=.k h K | <.Q ",
"I X._ g > 8 + d A O * w n / X.I ",
"Z ! W x 0 7 < = o ; 8 1 t E ! Z ",
"Q $.@.&.m 4 1 7 7 1 7 > j  .<.Q ",
"P ..] H l u e i i e i e v ' ..P "
};
