/* XPM */
static char *result[] = {
/* columns rows colors chars-per-pixel */
"16 16 110 2 ",
"   c #512F2C",
".  c #5B302A",
"X  c #5E3631",
"o  c #5C3A37",
"O  c #553738",
"+  c #5B3838",
"@  c #60332F",
"#  c #613430",
"$  c #643631",
"%  c #673631",
"&  c #663731",
"*  c #673731",
"=  c #663732",
"-  c #673732",
";  c #693732",
":  c #663833",
">  c #673833",
",  c #673933",
"<  c #693833",
"1  c #6A3833",
"2  c #683934",
"3  c #6B3934",
"4  c #6B3A34",
"5  c #6A3A35",
"6  c #6B3A35",
"7  c #6C3A35",
"8  c #633B3A",
"9  c #613F3C",
"0  c #6A3D38",
"q  c #6A3E39",
"w  c #733E38",
"e  c #64433F",
"r  c #6C403F",
"t  c #6E443F",
"y  c #7C433D",
"u  c #7C443D",
"i  c #554C4D",
"p  c #664440",
"a  c #674443",
"s  c #6D4241",
"d  c #6F4641",
"f  c #6F4442",
"g  c #674E4C",
"h  c #774540",
"j  c #704747",
"k  c #704A49",
"l  c #734D4D",
"z  c #7F4C4A",
"x  c #74534F",
"c  c #7A5959",
"v  c #7E625F",
"b  c #5D5260",
"n  c #5D5361",
"m  c #5F5463",
"M  c #5F5563",
"N  c #635360",
"B  c #56637B",
"V  c #7C6361",
"C  c #7F6360",
"Z  c #855857",
"A  c #836969",
"S  c #897272",
"D  c #5D6780",
"F  c #5B6A86",
"G  c #5C6A86",
"H  c #5F6D88",
"J  c #656B82",
"K  c #646B83",
"L  c #656C84",
"P  c #666C84",
"I  c #666D85",
"U  c #657189",
"Y  c #65738E",
"T  c #6A768E",
"R  c #6C7692",
"E  c #6E7793",
"W  c #6F7794",
"Q  c #6F7B92",
"!  c #6F7894",
"~  c #6F7995",
"^  c #717995",
"/  c #717A96",
"(  c #717D99",
")  c #707F9D",
"_  c #738097",
"`  c #7C8298",
"'  c #7D839A",
"]  c #6F80A0",
"[  c #6F80A1",
"{  c #7686A5",
"}  c #7786A5",
"|  c #7787A7",
" . c #7F8AA1",
".. c #7F8CA5",
"X. c #7F8DA7",
"o. c #848687",
"O. c #898686",
"+. c #8D8587",
"@. c #8E8688",
"#. c #8E8B8B",
"$. c #8E8D8D",
"%. c #808DA7",
"&. c #808DA8",
"*. c #828FA9",
"=. c #8794AC",
"-. c #8895AF",
";. c #8996B0",
":. c #929EB6",
">. c #929FB7",
",. c None",
/* pixels */
",.,.,.,.,.,.,.,.,.,.,.,.,.,.,.,.",
",.,.,.,.,.,.,.,.,.,.,.,.,.,.,.,.",
",.,.,.,.,.,.*.-.-.*.,.,.,.,.,.,.",
",.,.,.*.-..._ :.:._ ..-.*.,.,.,.",
"T ;..._ >.=.Y { { Y =.>._ ..;.T ",
"Q >.=.Y | ) D R R D ) | Y =.>.Q ",
"H } ( b m N O + + O N M n ( } H ",
"B Y L a X % $ < < $ * . 8 K Y B ",
"U %. .@.C 1 = @ ; > 6 - f ' &.U ",
"G [ ~ l q 7   i V # 6 , j W [ G ",
"B Y P r & 3 g o.$.x 1 t A J Y B ",
"U &.' f = 4 o O.#.e 1 d S ` &.U ",
"G [ ! s & 6 > p 9 2 3 q c E [ G ",
"B Y I k 0 6 : 3 3 = 6 = r P Y B ",
"U X. .+.v 1 = 5 5 = 6 & f ' &.U ",
"F ] / Z h y w u u w u w z ^ ] F "
};
