/* XPM */
static char *result[] = {
/* columns rows colors chars-per-pixel */
"16 16 101 2 ",
"   c #5B302A",
".  c #5E3631",
"X  c #553738",
"o  c #5B3838",
"O  c #653630",
"+  c #643631",
"@  c #663631",
"#  c #673631",
"$  c #663731",
"%  c #673731",
"&  c #663732",
"*  c #673732",
"=  c #663833",
"-  c #673833",
";  c #673933",
":  c #673934",
">  c #683833",
",  c #6A3833",
"<  c #6A3934",
"1  c #6B3934",
"2  c #6A3A35",
"3  c #6B3A35",
"4  c #633B3A",
"5  c #6A3D38",
"6  c #6A3E39",
"7  c #733E38",
"8  c #6E403B",
"9  c #6C403F",
"0  c #6D433E",
"q  c #6E443F",
"w  c #7C433D",
"e  c #7C443D",
"r  c #674443",
"t  c #6D4241",
"y  c #6F4641",
"u  c #6F4442",
"i  c #714541",
"p  c #774540",
"a  c #704747",
"s  c #704A49",
"d  c #734D4D",
"f  c #7F4C4A",
"g  c #7B5754",
"h  c #7A5959",
"j  c #7E625F",
"k  c #5D5260",
"l  c #5D5361",
"z  c #5F5463",
"x  c #5F5563",
"c  c #635360",
"v  c #56637B",
"b  c #7F6360",
"n  c #855857",
"m  c #836969",
"M  c #896F6C",
"N  c #897272",
"B  c #5D6780",
"V  c #5B6A86",
"C  c #5C6A86",
"Z  c #5F6D88",
"A  c #656B82",
"S  c #646B83",
"D  c #656C84",
"F  c #666C84",
"G  c #666D85",
"H  c #657189",
"J  c #65738E",
"K  c #6A768E",
"L  c #6C7692",
"P  c #6E7793",
"I  c #6F7794",
"U  c #6F7B92",
"Y  c #6F7894",
"T  c #6F7995",
"R  c #717995",
"E  c #717A96",
"W  c #717D99",
"Q  c #707F9D",
"!  c #738097",
"~  c #7C8298",
"^  c #7D839A",
"/  c #6F80A0",
"(  c #6F80A1",
")  c #7686A5",
"_  c #7786A5",
"`  c #7787A7",
"'  c #7F8AA1",
"]  c #7F8CA5",
"[  c #7F8DA7",
"{  c #8D8587",
"}  c #8E8688",
"|  c #A09897",
" . c #808DA7",
".. c #808DA8",
"X. c #828FA9",
"o. c #8794AC",
"O. c #8895AF",
"+. c #8996B0",
"@. c #929EB6",
"#. c #929FB7",
"$. c None",
/* pixels */
"$.$.$.$.$.$.$.$.$.$.$.$.$.$.$.$.",
"$.$.$.$.$.$.$.$.$.$.$.$.$.$.$.$.",
"$.$.$.$.$.$.X.O.O.X.$.$.$.$.$.$.",
"$.$.$.X.O.] ! @.@.! ] O.X.$.$.$.",
"K +.] ! #.o.J ) ) J o.#.! ] +.K ",
"U #.o.J ` Q B L L B Q ` J o.#.U ",
"Z _ W k z c X o o X c x l W _ Z ",
"v J D r . # + > > + %   4 S J v ",
"H  .' } b , - 3 1 - 3 * u ^ ..H ",
"C ( T d 6 3 & 8 i : 3 ; a I ( C ",
"v J F 9 $ 3 O M | 0 , q m A J v ",
"H ..^ u & 3 @ g M 6 < y N ~ ..H ",
"C ( Y t $ 3 - < , & 3 6 h P ( C ",
"v J G s 5 3 = 3 3 = 3 & 9 F J v ",
"H [ ' { j , & 2 2 & 3 $ u ^ ..H ",
"V / E n p w 7 e e 7 e 7 f R / V "
};
