/* XPM */
static char *result[] = {
/* columns rows colors chars-per-pixel */
"16 16 103 2 ",
"   c #5B302A",
".  c #5E3631",
"X  c #553738",
"o  c #5B3838",
"O  c #643530",
"+  c #663631",
"@  c #673631",
"#  c #663731",
"$  c #673731",
"%  c #663732",
"&  c #673732",
"*  c #673833",
"=  c #673934",
"-  c #683833",
";  c #6A3833",
":  c #6A3934",
">  c #6A3A35",
",  c #6B3A35",
"<  c #693C37",
"1  c #6A3C37",
"2  c #6C3C37",
"3  c #633B3A",
"4  c #693D38",
"5  c #6A3C38",
"6  c #6A3D38",
"7  c #6E3F3A",
"8  c #733E38",
"9  c #6E403B",
"0  c #6C403F",
"q  c #6E443F",
"w  c #7C433D",
"e  c #7C443D",
"r  c #674443",
"t  c #6D4241",
"y  c #6F4641",
"u  c #6F4442",
"i  c #734743",
"p  c #774540",
"a  c #704747",
"s  c #704A49",
"d  c #734F4B",
"f  c #764D49",
"g  c #774F4B",
"h  c #734D4D",
"j  c #7F4C4A",
"k  c #78514D",
"l  c #7A5959",
"z  c #7D5C58",
"x  c #7E625F",
"c  c #5D5260",
"v  c #5D5361",
"b  c #5F5463",
"n  c #5F5563",
"m  c #635360",
"M  c #56637B",
"N  c #7F6360",
"B  c #855857",
"V  c #836969",
"C  c #897272",
"Z  c #5D6780",
"A  c #5B6A86",
"S  c #5C6A86",
"D  c #5F6D88",
"F  c #656B82",
"G  c #646B83",
"H  c #656C84",
"J  c #666C84",
"K  c #666D85",
"L  c #657189",
"P  c #65738E",
"I  c #6A768E",
"U  c #6C7692",
"Y  c #6E7793",
"T  c #6F7794",
"R  c #6F7B92",
"E  c #6F7894",
"W  c #6F7995",
"Q  c #717995",
"!  c #717A96",
"~  c #717D99",
"^  c #707F9D",
"/  c #738097",
"(  c #7C8298",
")  c #7D839A",
"_  c #6F80A0",
"`  c #6F80A1",
"'  c #7686A5",
"]  c #7786A5",
"[  c #7787A7",
"{  c #7F8AA1",
"}  c #7F8CA5",
"|  c #7F8DA7",
" . c #8D8587",
".. c #8E8688",
"X. c #808DA7",
"o. c #808DA8",
"O. c #828FA9",
"+. c #8794AC",
"@. c #8895AF",
"#. c #8996B0",
"$. c #929EB6",
"%. c #929FB7",
"&. c None",
/* pixels */
"&.&.&.&.&.&.&.&.&.&.&.&.&.&.&.&.",
"&.&.&.&.&.&.&.&.&.&.&.&.&.&.&.&.",
"&.&.&.&.&.&.O.@.@.O.&.&.&.&.&.&.",
"&.&.&.O.@.} / $.$./ } @.O.&.&.&.",
"I #.} / %.+.P ' ' P +.%./ } #.I ",
"R %.+.P [ ^ Z U U Z ^ [ P +.%.R ",
"D ] ~ c b m X o o X m n v ~ ] D ",
"M P H r . @ O - - O $   3 G P M ",
"L X.{ ..N , 4 , , 4 2 & u ) o.L ",
"S ` W h 6 7 z 7 7 z 7 * a T ` S ",
"M P J 0 # , 1 g i 5 : q V F P M ",
"L o.) u % , 5 i f < , y C ( o.L ",
"S ` E t + 7 z 7 ; d k 6 l Y ` S ",
"M P K s 6 2 4 , , = 9 # 0 J P M ",
"L | {  .x ; % > > % : % u ) o.L ",
"A _ ! B p w 8 e e 8 e 8 j Q _ A "
};
