/* XPM */
static char *result[] = {
/* columns rows colors chars-per-pixel */
"16 16 99 2 ",
"   c #5B302A",
".  c #5E3631",
"X  c #553738",
"o  c #5B3838",
"O  c #643630",
"+  c #663631",
"@  c #673631",
"#  c #663731",
"$  c #663732",
"%  c #673833",
"&  c #683833",
"*  c #6A3833",
"=  c #683934",
"-  c #6A3934",
";  c #6B3934",
":  c #683A35",
">  c #6A3A35",
",  c #6B3A35",
"<  c #6C3C37",
"1  c #633B3A",
"2  c #6A3D38",
"3  c #6A3D39",
"4  c #6A3E39",
"5  c #6E3E39",
"6  c #6E3F3A",
"7  c #6E3F3B",
"8  c #733E38",
"9  c #6E403B",
"0  c #6C403F",
"q  c #6E443F",
"w  c #7C433D",
"e  c #7C443D",
"r  c #674443",
"t  c #6D4241",
"y  c #6F4641",
"u  c #6F4442",
"i  c #774540",
"p  c #704747",
"a  c #704945",
"s  c #754B47",
"d  c #704A49",
"f  c #734D4D",
"g  c #7F4C4A",
"h  c #7A5959",
"j  c #7E625F",
"k  c #5D5260",
"l  c #5D5361",
"z  c #5F5463",
"x  c #5F5563",
"c  c #635360",
"v  c #56637B",
"b  c #7F6360",
"n  c #855857",
"m  c #836969",
"M  c #897272",
"N  c #5D6780",
"B  c #5B6A86",
"V  c #5C6A86",
"C  c #5F6D88",
"Z  c #656B82",
"A  c #646B83",
"S  c #656C84",
"D  c #666C84",
"F  c #666D85",
"G  c #657189",
"H  c #65738E",
"J  c #6A768E",
"K  c #6C7692",
"L  c #6E7793",
"P  c #6F7794",
"I  c #6F7B92",
"U  c #6F7894",
"Y  c #6F7995",
"T  c #717995",
"R  c #717A96",
"E  c #717D99",
"W  c #707F9D",
"Q  c #738097",
"!  c #7C8298",
"~  c #7D839A",
"^  c #6F80A0",
"/  c #6F80A1",
"(  c #7686A5",
")  c #7786A5",
"_  c #7787A7",
"`  c #7F8AA1",
"'  c #7F8CA5",
"]  c #7F8DA7",
"[  c #8D8587",
"{  c #8E8688",
"}  c #808DA7",
"|  c #808DA8",
" . c #828FA9",
".. c #8794AC",
"X. c #8895AF",
"o. c #8996B0",
"O. c #929EB6",
"+. c #929FB7",
"@. c None",
/* pixels */
"@.@.@.@.@.@.@.@.@.@.@.@.@.@.@.@.",
"@.@.@.@.@.@.@.@.@.@.@.@.@.@.@.@.",
"@.@.@.@.@.@. .X.X. .@.@.@.@.@.@.",
"@.@.@. .X.' Q O.O.Q ' X. .@.@.@.",
"J o.' Q +...H ( ( H ..+.Q ' o.J ",
"I +...H _ W N K K N W _ H ..+.I ",
"C ) E k z c X o o X c x l E ) C ",
"v H S r . @ O & & O @   1 A H v ",
"G } ` { b 5 : , , : 9 $ u ~ | G ",
"V / Y f 2 s 3 , , 3 s % p P / V ",
"v H D 0 # ; $ , , $ - q m Z H v ",
"G | ~ u $ , $ , , $ - y M ! | G ",
"V / U t + < 3 , , = 6 4 h L / V ",
"v H F d 2 7 a ; , 3 s + 0 D H v ",
"G ] ` [ j * $ > > $ - $ u ~ | G ",
"B ^ R n i w 8 e e 8 e 8 g T ^ B "
};
