/* XPM */
static char *result[] = {
/* columns rows colors chars-per-pixel */
"16 16 98 2 ",
"   c #41211D",
".  c #43231F",
"X  c #472622",
"o  c #4B2824",
"O  c #472C2B",
"+  c #462D2D",
"@  c #502A26",
"#  c #512B27",
"$  c #5B312D",
"%  c #5D332E",
"&  c #462F31",
"*  c #5C3838",
"=  c #5D3A39",
"-  c #613430",
";  c #643631",
":  c #663631",
">  c #663731",
",  c #663732",
"<  c #663833",
"1  c #673833",
"2  c #673934",
"3  c #6A3833",
"4  c #6A3934",
"5  c #6B3934",
"6  c #6A3A35",
"7  c #6B3A35",
"8  c #6A3D38",
"9  c #6B3E39",
"0  c #733E38",
"q  c #6E443F",
"w  c #7C433D",
"e  c #7C443D",
"r  c #524D5B",
"t  c #554C59",
"y  c #58515F",
"u  c #6B4140",
"i  c #6D4241",
"p  c #6E4241",
"a  c #6E4341",
"s  c #6F4641",
"d  c #6F4645",
"f  c #774540",
"g  c #704A49",
"h  c #7F4C4A",
"j  c #74524F",
"k  c #775551",
"l  c #795757",
"z  c #7E625F",
"x  c #56637B",
"c  c #5C667F",
"v  c #7E6C6D",
"b  c #855857",
"n  c #856C6C",
"m  c #826F70",
"M  c #877071",
"N  c #5B6A86",
"B  c #5C6A86",
"V  c #5F6D88",
"C  c #616A81",
"Z  c #656C83",
"A  c #666C83",
"S  c #666D85",
"D  c #657189",
"F  c #677188",
"G  c #65738E",
"H  c #65748F",
"J  c #6A768E",
"K  c #6A7591",
"L  c #6E7692",
"P  c #6E7794",
"I  c #6F7B92",
"U  c #6F7894",
"Y  c #717995",
"T  c #717A96",
"R  c #707C98",
"E  c #707C99",
"W  c #707F9D",
"Q  c #738097",
"!  c #7B8299",
"~  c #7C8299",
"^  c #7D839A",
"/  c #6F80A0",
"(  c #6F80A1",
")  c #7686A5",
"_  c #7786A5",
"`  c #7788A7",
"'  c #7F8AA1",
"]  c #7F8CA5",
"[  c #7F8DA7",
"{  c #8D8587",
"}  c #808DA8",
"|  c #828FA9",
" . c #8794AC",
".. c #8895AF",
"X. c #8996B0",
"o. c #929EB6",
"O. c #929FB7",
"+. c None",
/* pixels */
"+.+.+.+.+.+.+.+.+.+.+.+.+.+.+.+.",
"+.+.+.+.+.+.+.+.+.+.+.+.+.+.+.+.",
"+.+.+.+.+.+.| ....| +.+.+.+.+.+.",
"+.+.+.| ..] Q o.o.Q ] ..| +.+.+.",
"J X.] Q O. .G ) ) G  .O.Q ] X.J ",
"I O. .H ` W c K K c W ` H  .O.I ",
"V _ E r y t & + + & t y r E _ V ",
"x G C O   . X o o X .   O C G x ",
"D } ! * @ % $ - - $ % # = ! } D ",
"B ( R v j 5 1 7 7 1 7 ; u P ( B ",
"x G F m k 4 < 7 7 < 7 2 d A G x ",
"D } ^ p : 7 < 7 7 < 5 q n ~ } D ",
"B ( U i > 7 < 7 7 < 5 s M L ( B ",
"x G S g 8 7 < 7 7 < 7 9 l Z G x ",
"D [ ' { z 3 , 6 6 , 7 : a ^ } D ",
"N / T b f w 0 e e 0 e 0 h Y / N "
};
