/* XPM */
static char *result[] = {
/* columns rows colors chars-per-pixel */
"16 16 83 1 ",
"  c #412320",
". c #422320",
"X c #442522",
"o c #472623",
"O c #4B2825",
"+ c #482E2F",
"@ c #512A26",
"# c #512B27",
"$ c #5B312D",
"% c #5D332E",
"& c #4D373A",
"* c #593635",
"= c #5A3736",
"- c #613430",
"; c #643631",
": c #663631",
"> c #663732",
", c #663833",
"< c #673833",
"1 c #673933",
"2 c #6A3934",
"3 c #6B3934",
"4 c #6B3A35",
"5 c #6B3F3A",
"6 c #6C403E",
"7 c #6E443F",
"8 c #6D4341",
"9 c #6D4242",
"0 c #6F4641",
"q c #6F4442",
"w c #704747",
"e c #74524F",
"r c #775551",
"t c #7B5C5C",
"y c #56637B",
"u c #836969",
"i c #806D6E",
"p c #837072",
"a c #897172",
"s c #5B6A86",
"d c #5C6A86",
"f c #5F6D88",
"g c #5F6D89",
"h c #636B82",
"j c #656B82",
"k c #666C83",
"l c #606F8B",
"z c #657189",
"x c #65728D",
"c c #65738D",
"v c #65738E",
"b c #6A768E",
"n c #6A7591",
"m c #6E7793",
"M c #6E7794",
"N c #6F7794",
"B c #6F7B92",
"V c #6F7F9F",
"C c #707C99",
"Z c #707F9C",
"A c #738097",
"S c #7C8298",
"D c #7D839A",
"F c #7B869E",
"G c #7E879E",
"H c #6F80A0",
"J c #6F80A1",
"K c #7080A1",
"L c #7281A0",
"P c #7685A4",
"I c #7686A4",
"U c #7686A5",
"Y c #7F8CA5",
"T c #808DA7",
"R c #808DA8",
"E c #828FA9",
"W c #8793AB",
"Q c #8794AB",
"! c #8895AF",
"~ c #8996B0",
"^ c #929EB6",
"/ c #929FB7",
"( c None",
/* pixels */
"((((((((((((((((",
"((((((((((((((((",
"((((((E!!E((((((",
"(((E!YA^^AY!E(((",
"b~YA/QxPPxQ/AY~b",
"B/WxIZgVVgZIxW/B",
"fULl((((((((lLUf",
"ycx((((((((((xcy",
"zTF&(      (&FTz",
"dKn+.XoOOoX.+nKd",
"yvh*@%$--$%#=hvy",
"zTGie3<44<4;8DRz",
"dJCpr2,44,41wNJd",
"yvk6:4,44,37ujvy",
"zRDq>4,44,30aSRz",
"sHM9>4,44,35tmHs"
};
