/* XPM */
static char *result[] = {
/* columns rows colors chars-per-pixel */
"16 16 75 1 ",
"  c #40221F",
". c #412320",
"X c #422421",
"o c #432421",
"O c #482622",
"+ c #482623",
"@ c #4F2A27",
"# c #502B27",
"$ c #562E2B",
"% c #5C312D",
"& c #482F30",
"* c #503232",
"= c #503333",
"- c #5F3833",
"; c #643631",
": c #673732",
"> c #663833",
", c #673833",
"< c #683833",
"1 c #6A3833",
"2 c #693934",
"3 c #6B3A35",
"4 c #643C3B",
"5 c #6A3D38",
"6 c #6B3F3A",
"7 c #674545",
"8 c #6F4442",
"9 c #734F4E",
"0 c #785656",
"q c #7F635F",
"w c #56637B",
"e c #5B6A86",
"r c #5C6A86",
"t c #5F6D88",
"y c #5F6D89",
"u c #656C83",
"i c #656D84",
"p c #606F8B",
"a c #657189",
"s c #64718C",
"d c #65728D",
"f c #65738D",
"g c #65738E",
"h c #6A768E",
"j c #6B7692",
"k c #6E7793",
"l c #6F7B92",
"z c #6F7895",
"x c #6F7F9F",
"c c #707F9C",
"v c #6F7FA0",
"b c #738097",
"n c #798299",
"m c #7D839A",
"M c #6F80A0",
"N c #7080A1",
"B c #7281A0",
"V c #7685A4",
"C c #7686A4",
"Z c #7686A5",
"A c #7F8AA1",
"S c #7F8CA5",
"D c #7F8CA6",
"F c #7F8DA7",
"G c #8E8688",
"H c #808DA7",
"J c #808DA8",
"K c #828FA9",
"L c #8793AB",
"P c #8794AB",
"I c #8895AF",
"U c #8996B0",
"Y c #929EB6",
"T c #929FB7",
"R c None",
/* pixels */
"RRRRRRRRRRRRRRRR",
"RRRRRRRRRRRRRRRR",
"RRRRRRKIIKRRRRRR",
"RRRKISbYYbSIKRRR",
"hUSbTPdVVdPTbSUh",
"lTLdCcyxxycCdLTl",
"tZBpRRRRRRRRpBZt",
"wfdRRRRRRRRRRdfw",
"aHDRRRRRRRRRRDHa",
"rMvRRRRRRRRRRvMr",
"wgsRRRR..RRRRsgw",
"aJn& .XooX. &nJa",
"rNj*O@#$$#@+=jNr",
"wgi7-<;22;<%4ugw",
"aFAGq1,33,3:8mJa",
"eMz963>33>350kMe"
};
