/* XPM */
static char *result[] = {
/* columns rows colors chars-per-pixel */
"16 16 6 1 ",
"  c black",
". c #45283C",
"X c #D95763",
"o c #306082",
"O c gray84",
"+ c None",
/* pixels */
"++++++++++++++++",
"++++++++++++++++",
"++++++++++++++++",
"++++++++++++++++",
"++++++++++++++++",
"+++++++   ++++++",
"++++   XOX  ++++",
"+++ . OOOOX  +++",
"++ .. XOooO . ++",
"++ ..  Xoo .. ++",
"++ . ++   + . ++",
"+++  ++++++  +++",
"++++++++++++++++",
"++++++++++++++++",
"++++++++++++++++",
"++++++++++++++++"
};
