/* XPM */
static char *result[] = {
/* columns rows colors chars-per-pixel */
"16 16 105 2 ",
"   c #203528",
".  c #343C2C",
"X  c #3E2833",
"o  c #3F2F31",
"O  c #393E33",
"+  c #3A3F34",
"@  c #551E3B",
"#  c #473D2F",
"$  c #483F2F",
"%  c #482736",
"&  c #482D37",
"*  c #5B203C",
"=  c #5F2A39",
"-  c #662E37",
";  c #68263B",
":  c #6D213F",
">  c #602939",
",  c #77293D",
"<  c #782D3C",
"1  c #77313D",
"2  c #315E1F",
"3  c #294725",
"4  c #294B23",
"5  c #33402B",
"6  c #3E432A",
"7  c #2A5720",
"8  c #3C5427",
"9  c #345922",
"0  c #3E6123",
"q  c #397F21",
"w  c #387E24",
"e  c #3B7528",
"r  c #46771D",
"t  c #477C1C",
"y  c #54552B",
"u  c #56572B",
"i  c #51502C",
"p  c #53512C",
"a  c #406424",
"s  c #466524",
"d  c #4A6724",
"f  c #4B6426",
"g  c #546C2A",
"h  c #7F364A",
"j  c #8B333F",
"k  c #932943",
"l  c #833849",
"z  c #8A3E54",
"x  c #8E3F55",
"c  c #AD2E46",
"v  c #B52C46",
"b  c #B62D46",
"n  c #BA2D45",
"m  c #BA2E46",
"M  c #B42E48",
"N  c #AB3344",
"B  c #924258",
"V  c #3E831F",
"C  c #3A8020",
"Z  c #3F8320",
"A  c #448518",
"S  c #47841A",
"D  c #4D861B",
"F  c #478E19",
"G  c #488819",
"H  c #56861D",
"J  c #57881D",
"K  c #5C8B1E",
"L  c #4B901A",
"P  c #57941C",
"I  c #61961B",
"U  c #669C1B",
"Y  c #62981E",
"T  c #63991E",
"R  c #649B1D",
"E  c #689D1A",
"W  c #699C1B",
"Q  c #699E1B",
"!  c #6A9E1D",
"~  c #6FA01C",
"^  c #6FA11C",
"/  c #71A01C",
"(  c #70A11C",
")  c #74A41D",
"_  c #418520",
"`  c #448721",
"'  c #5A8622",
"]  c #608124",
"[  c #739532",
"{  c #7DA629",
"}  c #7DA828",
"|  c #4F8A4B",
" . c #4F8A4C",
".. c #6C9A72",
"X. c #77A07F",
"o. c #8AB62E",
"O. c #8CB730",
"+. c #8FB736",
"@. c #92B53F",
"#. c #9FC83D",
"$. c #94B640",
"%. c #94B740",
"&. c #A6CE43",
"*. c #A7D043",
"=. c None",
/* pixels */
"=.=.=.=.=.=.=.=.=.=.=.=.=.=.=.=.",
"=.=.=.=.=.=.=.=.=.=.=.=.=.=.=.=.",
"=.=.=.=.=.=.=.=.5 5 =.=.=.=.=.=.",
"=.=.=.o p i X # y u $ * N < =.=.",
"=.=.=.> c b m n v M k @ : ; =.=.",
"=.=.=.& z x 1 l B h - % , j =.=.",
"=.=.=.e ....w | X. .A S 6 = =.=.",
"=.=.. K V C ` Z q _ ! ) d =.=.=.",
"=.=.=.H R P F L Y T U ~ f =.=.=.",
"=.=.=.9 D W E Q / ( ^ r =.=.=.=.",
"=.=.=.=.8 } O.O.o.' I s =.=.=.=.",
"=.=.=.=.g #.&.&.*.[ 2 3 =.=.=.=.",
"=.=.=.=.] +.%.$.@.{ J 4 =.=.=.=.",
"=.=.=.=.t a + =.O 0 G 7 =.=.=.=.",
"=.=.=.=.=.=.=.=.=.=.  =.=.=.=.=.",
"=.=.=.=.=.=.=.=.=.=.=.=.=.=.=.=."
};
