/* XPM */
static char *result[] = {
/* columns rows colors chars-per-pixel */
"16 16 103 2 ",
"   c #31312E",
".  c #373F2A",
"X  c #323C2C",
"o  c #4D1D3A",
"O  c #5D243A",
"+  c #70203F",
"@  c #762D3C",
"#  c #7C293C",
"$  c #73373A",
"%  c #7E333C",
"&  c #2E5D1F",
"*  c #264225",
"=  c #254823",
"-  c #274E22",
";  c #284B23",
":  c #294F22",
">  c #34462A",
",  c #36462A",
"<  c #2D5820",
"1  c #3E5723",
"2  c #3E5626",
"3  c #375F22",
"4  c #3E5428",
"5  c #3B5230",
"6  c #3F5531",
"7  c #336521",
"8  c #415827",
"9  c #485E26",
"0  c #466523",
"q  c #4C6725",
"w  c #476A27",
"e  c #4F7720",
"r  c #4A7024",
"t  c #5F7B30",
"y  c #7B2341",
"u  c #586455",
"i  c #5A6456",
"p  c #7D797A",
"a  c #882A3F",
"s  c #86323D",
"d  c #86333E",
"f  c #81393A",
"g  c #813D3B",
"h  c #843D3B",
"j  c #872640",
"k  c #952C42",
"l  c #A72747",
"z  c #B12745",
"x  c #B02845",
"c  c #B42945",
"v  c #B52A46",
"b  c #BC2D46",
"n  c #458519",
"m  c #41851F",
"M  c #44861F",
"N  c #498F1E",
"B  c #53811E",
"V  c #55871D",
"C  c #588F1B",
"Z  c #5C8B1D",
"A  c #5E8B1E",
"S  c #559717",
"D  c #549318",
"F  c #53911D",
"G  c #55931C",
"H  c #54951F",
"J  c #5E931C",
"K  c #599818",
"L  c #61951F",
"P  c #6A921F",
"I  c #659C1A",
"U  c #65991C",
"Y  c #6D9F1C",
"T  c #6BA21A",
"R  c #6DA01B",
"E  c #70A11C",
"W  c #75A31D",
"Q  c #408520",
"!  c #478720",
"~  c #488720",
"^  c #488D2D",
"/  c #5F8720",
"(  c #4F922C",
")  c #4A8D3C",
"_  c #4B8D3C",
"`  c #72962B",
"'  c #678137",
"]  c #6B803A",
"[  c #6B803B",
"{  c #7A9C37",
"}  c #77A421",
"|  c #78A621",
" . c #79A721",
".. c #4D8D41",
"X. c #86AE2F",
"o. c #93B73D",
"O. c #9EC73D",
"+. c #9FC83E",
"@. c #A5CD43",
"#. c #A6CF43",
"$. c #A7CF43",
"%. c #8A8186",
"&. c None",
/* pixels */
"&.&.&.&.&.&.&.&.&.&.&.&.&.&.&.&.",
"&.&.&.&.&.&.&.&.&.&.&.&.&.&.&.&.",
"&.&.&.d @ &.4 8 4 &.> 8 , &.&.&.",
"&.&.&.a y O g h f # % h $ &.&.&.",
"&.&.&.k o + l x c b v z j &.&.&.",
"&.&.&.s . 1 6 p p 5 i %.u * &.&.",
"&.&.&.  V T H ) _ N ^ ..( 0 &.&.",
"&.&.&.X P E F ~ M Q m ! G q &.&.",
"&.&.&.&.e Y E W I S K R C 2 &.&.",
"&.&.&.&.&.Z U / } |  .B ; &.&.&.",
"&.&.&.&.&.3 n w o.+.O.` &.&.&.&.",
"&.&.&.&.&.7 r { @.#.$.X.9 &.&.&.",
"&.&.&.&.- D J t [ ] ' L A &.&.&.",
"&.&.&.&.= & : &.&.&.&.: < &.&.&.",
"&.&.&.&.&.&.&.&.&.&.&.&.&.&.&.&.",
"&.&.&.&.&.&.&.&.&.&.&.&.&.&.&.&."
};
